<svg xmlns="http://www.w3.org/2000/svg" xmlns:xlink="http://www.w3.org/1999/xlink" xmlns:fi="http://pattern.flaticon.com/" x="0" y="0" width="5000" height="2500" viewBox="0 0 5000 2500"><rect x="0px" y="0px" width="100%" height="100%" opacity="0.94" fill="#fff2ce"/><defs><g transform="matrix(0.1489361673593521 0 0 0.1489361673593521 315 315)" id="L1_0"><rect x="170px" y="102px" width="128px" height="70px" fill="#ff382e"/><rect x="140px" y="222px" width="188px" height="70px" fill="#ff382e"/><rect x="150px" y="342px" width="168px" height="30px" fill="#de2f1b"/><rect x="110px" y="342px" width="50px" height="120px" fill="#ff382e"/><rect x="309px" y="342px" width="49px" height="120px" fill="#ff382e"/><path d="M234.999,60c-4.142,0-7.5-3.358-7.5-7.5v-45c0-4.142,3.358-7.5,7.5-7.5s7.5,3.358,7.5,7.5v45   C242.499,56.642,239.141,60,234.999,60z" fill="#1c1918"/><rect x="235px" y="372px" width="74px" height="90px" fill="#d19884"/><rect x="160px" y="372px" width="74px" height="90px" fill="#c1765b"/><path d="M349.25,282.5 120.74,282.5 90.74,342.5 379.25,342.5z" fill="#3f3736"/><path d="M319.25,162.5 150.74,162.5 120.74,222.5 349.25,222.5z" fill="#3f3736"/><path d="M235,42.5 150.74,102.5 319.25,102.5z" fill="#3f3736"/><path d="M339.254,230h-208.51c-15.796,0-29.985-10.026-35.308-24.949c-1.392-3.901,0.643-8.192,4.544-9.583   c3.899-1.394,8.191,0.643,9.583,4.544c3.198,8.965,11.709,14.988,21.18,14.988h208.51c9.472,0,17.984-6.025,21.181-14.992   c1.391-3.901,5.68-5.937,9.583-4.546c3.901,1.391,5.937,5.681,4.546,9.583C369.244,219.971,355.054,230,339.254,230z" fill="#3f3736"/><path d="M309.254,110h-148.51c-15.796,0-29.985-10.026-35.308-24.949c-1.392-3.901,0.643-8.192,4.544-9.583   c3.897-1.394,8.192,0.643,9.583,4.544C142.762,88.977,151.273,95,160.744,95h148.51c9.473,0,17.984-6.025,21.181-14.993   c1.391-3.901,5.679-5.937,9.583-4.546c3.901,1.391,5.937,5.681,4.546,9.583C339.244,99.971,325.054,110,309.254,110z" fill="#3f3736"/><path d="M369.254,350h-268.51c-15.796,0-29.985-10.026-35.308-24.949c-1.392-3.901,0.643-8.192,4.544-9.583   c3.897-1.394,8.192,0.643,9.583,4.544C82.762,328.977,91.273,335,100.744,335h268.51c9.473,0,17.984-6.025,21.181-14.992   c1.391-3.902,5.682-5.938,9.583-4.546c3.902,1.391,5.938,5.681,4.546,9.583C399.244,339.971,385.054,350,369.254,350z" fill="#3f3736"/><path d="M309.254,380h-148.51c-4.142,0-7.5-3.358-7.5-7.5s3.358-7.5,7.5-7.5h148.51   c4.142,0,7.5,3.358,7.5,7.5S313.396,380,309.254,380z" fill="#d19884"/><path d="M397.5,470h-325c-4.142,0-7.5-3.358-7.5-7.5s3.358-7.5,7.5-7.5h325c4.142,0,7.5,3.358,7.5,7.5   S401.642,470,397.5,470z" fill="#ff382e"/></g><g transform="matrix(0.10989011079072952 0 0 0.10989011079072952 62.5 150)" id="L1_1"><rect x="119px" y="131px" width="93px" height="141px" fill="#ffd572"/><path d="M71.731,98.713v135.564c0,34.111,26.28,62.084,59.698,64.776h19.331V98.713H71.731z" fill="#ffe3a1"/><path d="M150.754,237.988c-19.455,22.974-31.187,52.697-31.187,85.16V425c0,16.5,13.5,30,30,30h203.703   c16.5,0,30-13.5,30-30V323.149c0-32.463-11.732-62.186-31.187-85.16" fill="#ffe3a1"/><path d="M354.214,1.955c-12.366-6.931-44.252,4.766-68.896,31.912c-10.682-3.202-22.072-4.938-33.9-4.938   c-11.828,0-23.218,1.737-33.9,4.938c-24.645-27.146-56.53-38.843-68.896-31.912c-14.671,8.222-21.341,53.56-1.158,95.136   c-4.099,10.721-6.337,22.261-6.337,34.288c0,56.581,49.379,102.45,110.292,102.45S361.71,187.96,361.71,131.379   c0-12.027-2.238-23.567-6.337-34.288C375.555,55.515,368.885,10.177,354.214,1.955z" fill="#ffe3a1"/><path d="M171.43,265.16v46.17c0,44.18,35.81,79.99,79.99,79.99c44.17,0,79.99-35.81,79.99-79.99v-46.17   H171.43z" fill="#87de66"/><path d="M352.07,237.99v16.51c0,11.36-9.3,20.66-20.66,20.66h-79.99h-79.99c-11.37,0-20.67-9.3-20.67-20.66   v-31.79c0-11.36,9.3-20.66,20.67-20.66l0.07-0.07c20.09,19.62,48.47,31.85,79.92,31.85s59.82-12.23,79.92-31.85l0.07,0.07   c11.36,0,20.66,9.3,20.66,20.66V237.99z" fill="#ff382e"/><path d="M251.42,347.5c-19.98,0-36.17-16.19-36.17-36.17c0-19.97,16.19-36.17,36.17-36.17   c19.97,0,36.17,16.2,36.17,36.17C287.59,331.31,271.39,347.5,251.42,347.5z" fill="#ffb914"/><path d="M209.66,85.91c17.12,0,31,13.88,31,31c0,17.13-13.88,31.01-31,31.01s-31-13.88-31-31.01   C178.66,99.79,192.54,85.91,209.66,85.91z" fill="#ffb914"/><path d="M297.31,85.91c17.12,0,31,13.88,31,31c0,17.13-13.88,31.01-31,31.01c-17.12,0-31-13.88-31-31.01   C266.31,99.79,280.19,85.91,297.31,85.91z" fill="#ffb914"/><path d="M209.663,129.581c-4.142,0-7.5-3.357-7.5-7.5v-10.334c0-4.143,3.358-7.5,7.5-7.5s7.5,3.357,7.5,7.5   v10.334C217.163,126.224,213.805,129.581,209.663,129.581z" fill="#3f3736"/><path d="M297.307,129.581c-4.142,0-7.5-3.357-7.5-7.5v-10.334c0-4.143,3.358-7.5,7.5-7.5s7.5,3.357,7.5,7.5   v10.334C304.807,126.224,301.449,129.581,297.307,129.581z" fill="#3f3736"/><path d="M251.418,303.83c-4.142,0-7.5,3.357-7.5,7.5v35.387c2.421,0.51,4.929,0.783,7.502,0.783   c2.571,0,5.078-0.273,7.498-0.783V311.33C258.918,307.187,255.56,303.83,251.418,303.83z" fill="#655f5e"/><path d="M353.269,424.998c-0.001-4.142-3.358-7.498-7.5-7.498c-0.002,0-34.353,0.012-34.353,0.012   c-4.142,0.001-7.499,3.36-7.498,7.502s0,29.986,0,29.986h49.351C353.269,455,353.27,429.132,353.269,424.998z" fill="#ffc743"/><path d="M149.567,424.998c0.001-4.142,3.358-7.498,7.5-7.498c0.002,0,34.353,0.012,34.353,0.012   c4.142,0.001,7.499,3.36,7.498,7.502s0,29.986,0,29.986h-49.351C149.567,455,149.566,429.132,149.567,424.998z" fill="#ffc743"/><path d="M150.76,88.713c0-21.823-17.691-39.514-39.515-39.514c-21.823,0-39.515,17.691-39.515,39.514v10   h79.029V88.713z" fill="#ffc743"/></g><g transform="matrix(0.10810811072587967 0 0 0.10810811072587967 237.5 150)" id="L1_2"><path d="M443.75,60h-425c-8.28,0-15,6.72-15,15s6.72,15,15,15h425c8.28,0,15-6.72,15-15S452.03,60,443.75,60   z" fill="#d19884"/><rect x="46px" y="30px" width="30px" height="197px" fill="#ffd572"/><rect x="76px" y="30px" width="30px" height="197px" fill="#ffb914"/><rect x="106px" y="30px" width="30px" height="197px" fill="#ffd572"/><path d="M3.75,227.5c0,125.64,101.86,227.5,227.5,227.5s227.5-101.86,227.5-227.5H3.75z" fill="#19abbf"/><path d="M298.75,462.5h-135c-4.142,0-7.5-3.357-7.5-7.5s3.358-7.5,7.5-7.5h135c4.143,0,7.5,3.357,7.5,7.5   S302.893,462.5,298.75,462.5z" fill="#19abbf"/><circle cx="118" cy="369" r="7" fill="#0b7786"/><circle cx="88" cy="339" r="7" fill="#0b7786"/><path d="M443.75,0h-425c-8.28,0-15,6.72-15,15s6.72,15,15,15h425c8.28,0,15-6.72,15-15S452.03,0,443.75,0z" fill="#ffbc99"/></g><g transform="matrix(0.10810811072587967 0 0 0.10810811072587967 150 325)" id="L1_3"><rect x="110px" y="54px" width="40px" height="60px" fill="#ffc743"/><path d="M441.764,76.757h-180.03v15h180.03c4.143,0,7.5-3.357,7.5-7.5S445.906,76.757,441.764,76.757z" fill="#ffb914"/><rect x="140px" y="54px" width="131px" height="60px" fill="#ffe3a1"/><path d="M441.764,106.757H111.556l-57.682-22.5l57.682-22.5h330.208c4.143,0,7.5-3.357,7.5-7.5   s-3.357-7.5-7.5-7.5h-333.03L30.736,77.182v14.15l77.998,30.425h333.03c4.143,0,7.5-3.357,7.5-7.5S445.906,106.757,441.764,106.757   z" fill="#ffb914"/><rect x="110px" y="154px" width="40px" height="75px" fill="#ffb8b4"/><rect x="140px" y="154px" width="228px" height="75px" fill="#ff382e"/><path d="M449.264,154.257v-7.5h-340.85l-77.678,37.875v14.25l77.678,37.875h340.85v-7.5   c0-15.634-8.014-29.432-20.149-37.5C441.25,183.688,449.264,169.891,449.264,154.257z M368.69,221.757H111.876l-61.527-30   l61.527-30H368.69V221.757z" fill="#ff8882"/><rect x="110px" y="263px" width="40px" height="75px" fill="#68e1f2"/><rect x="140px" y="263px" width="228px" height="75px" fill="#0b7786"/><path d="M449.264,263.742v-7.5h-340.85l-77.678,37.875v14.25l77.678,37.875h340.85v-7.5   c0-15.634-8.014-29.432-20.149-37.5C441.25,293.173,449.264,279.375,449.264,263.742z M368.69,331.242H111.876l-61.527-30   l61.527-30H368.69V331.242z" fill="#19abbf"/><path d="M25.736,20v435c0,4.143,3.358,7.5,7.5,7.5s7.5-3.357,7.5-7.5V20H25.736z" fill="#b2afaf"/><circle cx="33" cy="20" r="20" fill="#655f5e"/></g></defs><g fi:class="KUsePattern"><pattern id="pattern_L1_0" width="350" height="350" patternUnits="userSpaceOnUse"><use xlink:href="#L1_0" x="-350" y="-350"/><use xlink:href="#L1_0" x="0" y="-350"/><use xlink:href="#L1_0" x="350" y="-350"/><use xlink:href="#L1_0" x="-350" y="0"/><use xlink:href="#L1_0" x="0" y="0"/><use xlink:href="#L1_0" x="350" y="0"/><use xlink:href="#L1_0" x="-350" y="350"/><use xlink:href="#L1_0" x="0" y="350"/><use xlink:href="#L1_0" x="350" y="350"/></pattern><rect x="0" y="0" width="100%" height="100%" fill="url(#pattern_L1_0)"/></g><g fi:class="KUsePattern"><pattern id="pattern_L1_1" width="350" height="350" patternUnits="userSpaceOnUse"><use xlink:href="#L1_1" x="-350" y="-350"/><use xlink:href="#L1_1" x="0" y="-350"/><use xlink:href="#L1_1" x="350" y="-350"/><use xlink:href="#L1_1" x="-350" y="0"/><use xlink:href="#L1_1" x="0" y="0"/><use xlink:href="#L1_1" x="350" y="0"/><use xlink:href="#L1_1" x="-350" y="350"/><use xlink:href="#L1_1" x="0" y="350"/><use xlink:href="#L1_1" x="350" y="350"/></pattern><rect x="0" y="0" width="100%" height="100%" fill="url(#pattern_L1_1)"/></g><g fi:class="KUsePattern"><pattern id="pattern_L1_2" width="350" height="350" patternUnits="userSpaceOnUse"><use xlink:href="#L1_2" x="-350" y="-350"/><use xlink:href="#L1_2" x="0" y="-350"/><use xlink:href="#L1_2" x="350" y="-350"/><use xlink:href="#L1_2" x="-350" y="0"/><use xlink:href="#L1_2" x="0" y="0"/><use xlink:href="#L1_2" x="350" y="0"/><use xlink:href="#L1_2" x="-350" y="350"/><use xlink:href="#L1_2" x="0" y="350"/><use xlink:href="#L1_2" x="350" y="350"/></pattern><rect x="0" y="0" width="100%" height="100%" fill="url(#pattern_L1_2)"/></g><g fi:class="KUsePattern"><pattern id="pattern_L1_3" width="350" height="350" patternUnits="userSpaceOnUse"><use xlink:href="#L1_3" x="-350" y="-350"/><use xlink:href="#L1_3" x="0" y="-350"/><use xlink:href="#L1_3" x="350" y="-350"/><use xlink:href="#L1_3" x="-350" y="0"/><use xlink:href="#L1_3" x="0" y="0"/><use xlink:href="#L1_3" x="350" y="0"/><use xlink:href="#L1_3" x="-350" y="350"/><use xlink:href="#L1_3" x="0" y="350"/><use xlink:href="#L1_3" x="350" y="350"/></pattern><rect x="0" y="0" width="100%" height="100%" fill="url(#pattern_L1_3)"/></g></svg>