<svg xmlns="http://www.w3.org/2000/svg" width="3840" height="2880"><path d="M1809,1744L2399,1927L2163,1136Z" fill="#918ec2" stroke="#918ec2" stroke-width="1.51"/><path d="M2399,1927L2982,1700L2163,1136Z" fill="#8780bc" stroke="#8780bc" stroke-width="1.51"/><path d="M2163,1136L1452,1150L1809,1744Z" fill="#a6a2cd" stroke="#a6a2cd" stroke-width="1.51"/><path d="M2399,1927L2888,2481L2982,1700Z" fill="#715eaa" stroke="#715eaa" stroke-width="1.51"/><path d="M1809,1744L2404,2375L2399,1927Z" fill="#8076b6" stroke="#8076b6" stroke-width="1.51"/><path d="M2982,1700L3062,1328L2163,1136Z" fill="#8a7ebb" stroke="#8a7ebb" stroke-width="1.51"/><path d="M2404,2375L2888,2481L2399,1927Z" fill="#6f5aa7" stroke="#6f5aa7" stroke-width="1.51"/><path d="M3697,1784L3283,910L3062,1328Z" fill="#7f66af" stroke="#7f66af" stroke-width="1.51"/><path d="M2163,1136L1388,647L1452,1150Z" fill="#bab8da" stroke="#bab8da" stroke-width="1.51"/><path d="M2106,344L1388,647L2163,1136Z" fill="#bdbbda" stroke="#bdbbda" stroke-width="1.51"/><path d="M2641,375L2106,344L2163,1136Z" fill="#b3b0d5" stroke="#b3b0d5" stroke-width="1.51"/><path d="M723,2236L1500,2633L1809,1744Z" fill="#9586c0" stroke="#9586c0" stroke-width="1.51"/><path d="M1388,647L1139,915L1452,1150Z" fill="#c7c7e2" stroke="#c7c7e2" stroke-width="1.51"/><path d="M3062,1328L2641,375L2163,1136Z" fill="#9f97c8" stroke="#9f97c8" stroke-width="1.51"/><path d="M3062,1328L3283,910L2641,375Z" fill="#9a89c2" stroke="#9a89c2" stroke-width="1.51"/><path d="M3697,1784L3062,1328L2982,1700Z" fill="#765fab" stroke="#765fab" stroke-width="1.51"/><path d="M1809,1744L1500,2633L2404,2375Z" fill="#8370b4" stroke="#8370b4" stroke-width="1.51"/><path d="M2404,2375L2808,3169L2888,2481Z" fill="#603f99" stroke="#603f99" stroke-width="1.51"/><path d="M761,1697L1809,1744L1452,1150Z" fill="#acabd1" stroke="#acabd1" stroke-width="1.51"/><path d="M1388,647L1176,703L1139,915Z" fill="#d0d0e6" stroke="#d0d0e6" stroke-width="1.51"/><path d="M998,-5L1176,703L1388,647Z" fill="#dbdaeb" stroke="#dbdaeb" stroke-width="1.51"/><path d="M2888,2481L3277,2400L2982,1700Z" fill="#66489e" stroke="#66489e" stroke-width="1.51"/><path d="M1139,915L761,1697L1452,1150Z" fill="#bebedc" stroke="#bebedc" stroke-width="1.51"/><path d="M533,1168L761,1697L1139,915Z" fill="#c7c5e0" stroke="#c7c5e0" stroke-width="1.51"/><path d="M1500,2633L2152,3053L2404,2375Z" fill="#7357a6" stroke="#7357a6" stroke-width="1.51"/><path d="M2888,2481L3395,3231L3277,2400Z" fill="#53288e" stroke="#53288e" stroke-width="1.51"/><path d="M2106,344L1616,-173L1388,647Z" fill="#cfcce4" stroke="#cfcce4" stroke-width="1.51"/><path d="M2641,375L2055,44L2106,344Z" fill="#bebadb" stroke="#bebadb" stroke-width="1.51"/><path d="M3277,2400L3697,1784L2982,1700Z" fill="#674ba0" stroke="#674ba0" stroke-width="1.51"/><path d="M1500,2633L1678,3084L2152,3053Z" fill="#7657a5" stroke="#7657a5" stroke-width="1.51"/><path d="M1473,3435L1678,3084L848,3239Z" fill="#8566ae" stroke="#8566ae" stroke-width="1.51"/><path d="M761,1697L723,2236L1809,1744Z" fill="#a6a1ce" stroke="#a6a1ce" stroke-width="1.51"/><path d="M435,569L533,1168L1139,915Z" fill="#d8d8ea" stroke="#d8d8ea" stroke-width="1.51"/><path d="M761,1697L127,1668L723,2236Z" fill="#b5aed5" stroke="#b5aed5" stroke-width="1.51"/><path d="M435,569L1139,915L1176,703Z" fill="#dbdaec" stroke="#dbdaec" stroke-width="1.51"/><path d="M4344,2192L4119,1818L3697,1784Z" fill="#5e3d97" stroke="#5e3d97" stroke-width="1.51"/><path d="M2152,3053L2808,3169L2404,2375Z" fill="#61439a" stroke="#61439a" stroke-width="1.51"/><path d="M2294,3702L2808,3169L2152,3053Z" fill="#62449b" stroke="#62449b" stroke-width="1.51"/><path d="M2055,44L1616,-173L2106,344Z" fill="#cbc8e1" stroke="#cbc8e1" stroke-width="1.51"/><path d="M2641,375L2886,-160L2055,44Z" fill="#bab2d8" stroke="#bab2d8" stroke-width="1.51"/><path d="M2055,44L2259,-797L1616,-173Z" fill="#cbc8e1" stroke="#cbc8e1" stroke-width="1.51"/><path d="M3275,-132L2886,-160L2641,375Z" fill="#b2a0cf" stroke="#b2a0cf" stroke-width="1.51"/><path d="M3275,-132L2641,375L3283,910Z" fill="#a993c8" stroke="#a993c8" stroke-width="1.51"/><path d="M4103,653L3710,375L3283,910Z" fill="#9576b7" stroke="#9576b7" stroke-width="1.51"/><path d="M3697,1784L4094,1049L3283,910Z" fill="#7d60ab" stroke="#7d60ab" stroke-width="1.51"/><path d="M4344,2192L3697,1784L3277,2400Z" fill="#583392" stroke="#583392" stroke-width="1.51"/><path d="M1616,-173L998,-5L1388,647Z" fill="#dcdcec" stroke="#dcdcec" stroke-width="1.51"/><path d="M4119,1818L4094,1049L3697,1784Z" fill="#6d4fa0" stroke="#6d4fa0" stroke-width="1.51"/><path d="M1678,3084L2294,3702L2152,3053Z" fill="#6e50a0" stroke="#6e50a0" stroke-width="1.51"/><path d="M848,3239L1678,3084L1500,2633Z" fill="#8466ae" stroke="#8466ae" stroke-width="1.51"/><path d="M3710,375L3275,-132L3283,910Z" fill="#a285c1" stroke="#a285c1" stroke-width="1.51"/><path d="M998,-5L435,569L1176,703Z" fill="#e4e4f0" stroke="#e4e4f0" stroke-width="1.51"/><path d="M2808,3169L3395,3231L2888,2481Z" fill="#52278d" stroke="#52278d" stroke-width="1.51"/><path d="M3280,3536L3395,3231L2808,3169Z" fill="#4f218a" stroke="#4f218a" stroke-width="1.51"/><path d="M723,2236L848,3239L1500,2633Z" fill="#9375b7" stroke="#9375b7" stroke-width="1.51"/><path d="M533,1168L127,1668L761,1697Z" fill="#c3c0dd" stroke="#c3c0dd" stroke-width="1.51"/><path d="M-534,1190L127,1668L533,1168Z" fill="#d0cee4" stroke="#d0cee4" stroke-width="1.51"/><path d="M4094,1049L4103,653L3283,910Z" fill="#8a6bb1" stroke="#8a6bb1" stroke-width="1.51"/><path d="M3710,375L3745,-631L3275,-132Z" fill="#a687c2" stroke="#a687c2" stroke-width="1.51"/><path d="M4620,1048L4103,653L4094,1049Z" fill="#8869b0" stroke="#8869b0" stroke-width="1.51"/><path d="M1473,3435L2294,3702L1678,3084Z" fill="#7556a4" stroke="#7556a4" stroke-width="1.51"/><path d="M1473,3435L1463,4304L2294,3702Z" fill="#7759a6" stroke="#7759a6" stroke-width="1.51"/><path d="M457,2891L848,3239L723,2236Z" fill="#9979b9" stroke="#9979b9" stroke-width="1.51"/><path d="M127,1668L226,2468L723,2236Z" fill="#b0a0ce" stroke="#b0a0ce" stroke-width="1.51"/><path d="M226,2468L457,2891L723,2236Z" fill="#a387c2" stroke="#a387c2" stroke-width="1.51"/><path d="M2294,3702L2685,3731L2808,3169Z" fill="#5d3c97" stroke="#5d3c97" stroke-width="1.51"/><path d="M4119,1818L4620,1048L4094,1049Z" fill="#7759a6" stroke="#7759a6" stroke-width="1.51"/><path d="M4140,2934L4344,2192L3277,2400Z" fill="#4a1786" stroke="#4a1786" stroke-width="1.51"/><path d="M3395,3231L4140,2934L3277,2400Z" fill="#460d82" stroke="#460d82" stroke-width="1.51"/><path d="M2685,3731L3280,3536L2808,3169Z" fill="#552c8f" stroke="#552c8f" stroke-width="1.51"/><path d="M-534,1190L-69,1831L127,1668Z" fill="#c8c4e0" stroke="#c8c4e0" stroke-width="1.51"/><path d="M127,1668L-69,1831L226,2468Z" fill="#b7acd4" stroke="#b7acd4" stroke-width="1.51"/><path d="M2744,-797L2259,-797L2886,-160Z" fill="#b9afd6" stroke="#b9afd6" stroke-width="1.51"/><path d="M2886,-160L2259,-797L2055,44Z" fill="#bebadb" stroke="#bebadb" stroke-width="1.51"/><path d="M1616,-173L879,-724L998,-5Z" fill="#e4e4f1" stroke="#e4e4f1" stroke-width="1.51"/><path d="M4357,3480L4140,2934L3395,3231Z" fill="#3f007d" stroke="#3f007d" stroke-width="1.51"/><path d="M3745,-631L2744,-797L3275,-132Z" fill="#ac92c8" stroke="#ac92c8" stroke-width="1.51"/><path d="M3275,-132L2744,-797L2886,-160Z" fill="#b29fce" stroke="#b29fce" stroke-width="1.51"/><path d="M2259,-797L1623,-797L1616,-173Z" fill="#cfcde4" stroke="#cfcde4" stroke-width="1.51"/><path d="M998,-5L279,-354L435,569Z" fill="#f2f0f7" stroke="#f2f0f7" stroke-width="1.51"/><path d="M4349,-190L3745,-631L3710,375Z" fill="#a17fbd" stroke="#a17fbd" stroke-width="1.51"/><path d="M4720,1998L4620,1048L4119,1818Z" fill="#6a4c9f" stroke="#6a4c9f" stroke-width="1.51"/><path d="M-69,1831L-132,2537L226,2468Z" fill="#b09ccc" stroke="#b09ccc" stroke-width="1.51"/><path d="M226,2468L-132,2537L457,2891Z" fill="#a587c1" stroke="#a587c1" stroke-width="1.51"/><path d="M423,3515L753,3689L848,3239Z" fill="#9675b7" stroke="#9675b7" stroke-width="1.51"/><path d="M4344,2192L4720,1998L4119,1818Z" fill="#5b3895" stroke="#5b3895" stroke-width="1.51"/><path d="M5004,2511L4720,1998L4344,2192Z" fill="#532a8e" stroke="#532a8e" stroke-width="1.51"/><path d="M423,3515L848,3239L457,2891Z" fill="#9977b8" stroke="#9977b8" stroke-width="1.51"/><path d="M848,3239L753,3689L1473,3435Z" fill="#8e6eb3" stroke="#8e6eb3" stroke-width="1.51"/><path d="M2294,3702L2331,4442L2685,3731Z" fill="#61449a" stroke="#61449a" stroke-width="1.51"/><path d="M1623,-797L879,-724L1616,-173Z" fill="#dedeed" stroke="#dedeed" stroke-width="1.51"/><path d="M435,569L-534,1190L533,1168Z" fill="#dedeed" stroke="#dedeed" stroke-width="1.51"/><path d="M-163,3199L423,3515L457,2891Z" fill="#9e7cbb" stroke="#9e7cbb" stroke-width="1.51"/><path d="M4349,-190L3710,375L4103,653Z" fill="#9c7aba" stroke="#9c7aba" stroke-width="1.51"/><path d="M879,-724L279,-354L998,-5Z" fill="#f0eff6" stroke="#f0eff6" stroke-width="1.51"/><path d="M4357,3480L4587,2864L4140,2934Z" fill="#3f007d" stroke="#3f007d" stroke-width="1.51"/><path d="M4140,2934L4587,2864L4344,2192Z" fill="#460e82" stroke="#460e82" stroke-width="1.51"/><path d="M-513,636L-534,1190L435,569Z" fill="#e7e7f2" stroke="#e7e7f2" stroke-width="1.51"/><path d="M-69,1831L-1117,2179L-132,2537Z" fill="#b3a2cf" stroke="#b3a2cf" stroke-width="1.51"/><path d="M4870,562L4349,-190L4103,653Z" fill="#9b79b9" stroke="#9b79b9" stroke-width="1.51"/><path d="M1151,4531L1463,4304L753,3689Z" fill="#8b6cb1" stroke="#8b6cb1" stroke-width="1.51"/><path d="M753,3689L1463,4304L1473,3435Z" fill="#8869b0" stroke="#8869b0" stroke-width="1.51"/><path d="M2685,3731L3340,4324L3280,3536Z" fill="#50248b" stroke="#50248b" stroke-width="1.51"/><path d="M-177,-90L-513,636L435,569Z" fill="#f5f3f9" stroke="#f5f3f9" stroke-width="1.51"/><path d="M4620,1048L4870,562L4103,653Z" fill="#8f6fb3" stroke="#8f6fb3" stroke-width="1.51"/><path d="M4720,1998L4870,562L4620,1048Z" fill="#7c5da9" stroke="#7c5da9" stroke-width="1.51"/><path d="M423,3515L481,4184L753,3689Z" fill="#9977b8" stroke="#9977b8" stroke-width="1.51"/><path d="M-132,2537L-163,3199L457,2891Z" fill="#a07ebc" stroke="#a07ebc" stroke-width="1.51"/><path d="M-1135,3057L-163,3199L-132,2537Z" fill="#a17fbd" stroke="#a17fbd" stroke-width="1.51"/><path d="M279,-354L-177,-90L435,569Z" fill="#f8f7fb" stroke="#f8f7fb" stroke-width="1.51"/><path d="M-97,-590L-177,-90L279,-354Z" fill="#fcfbfd" stroke="#fcfbfd" stroke-width="1.51"/><path d="M1463,4304L2331,4442L2294,3702Z" fill="#6e4fa1" stroke="#6e4fa1" stroke-width="1.51"/><path d="M3280,3536L4357,3480L3395,3231Z" fill="#430880" stroke="#430880" stroke-width="1.51"/><path d="M3977,4130L4357,3480L3280,3536Z" fill="#3f007d" stroke="#3f007d" stroke-width="1.51"/><path d="M2331,4442L2882,4412L2685,3731Z" fill="#5c3b96" stroke="#5c3b96" stroke-width="1.51"/><path d="M4720,1998L5004,2511L4870,562Z" fill="#67499d" stroke="#67499d" stroke-width="1.51"/><path d="M4587,2864L5004,2511L4344,2192Z" fill="#4a1686" stroke="#4a1686" stroke-width="1.51"/><path d="M4610,3871L5004,2511L4587,2864Z" fill="#3f007d" stroke="#3f007d" stroke-width="1.51"/><path d="M2882,4412L3340,4324L2685,3731Z" fill="#542b8e" stroke="#542b8e" stroke-width="1.51"/><path d="M-163,3199L-67,3536L423,3515Z" fill="#a07ebc" stroke="#a07ebc" stroke-width="1.51"/><path d="M-534,1190L-903,1674L-69,1831Z" fill="#c8c4e0" stroke="#c8c4e0" stroke-width="1.51"/><path d="M-163,3199L-1139,3582L-67,3536Z" fill="#a17fbd" stroke="#a17fbd" stroke-width="1.51"/><path d="M-1138,1177L-903,1674L-534,1190Z" fill="#d1cee5" stroke="#d1cee5" stroke-width="1.51"/><path d="M4349,-190L4133,-960L3745,-631Z" fill="#a17fbd" stroke="#a17fbd" stroke-width="1.51"/><path d="M4870,562L4721,-257L4349,-190Z" fill="#a17ebc" stroke="#a17ebc" stroke-width="1.51"/><path d="M3340,4324L3977,4130L3280,3536Z" fill="#460f83" stroke="#460f83" stroke-width="1.51"/><path d="M4357,3480L4610,3871L4587,2864Z" fill="#3f007d" stroke="#3f007d" stroke-width="1.51"/><path d="M-67,3536L481,4184L423,3515Z" fill="#9d7bba" stroke="#9d7bba" stroke-width="1.51"/><path d="M1463,4304L1151,4531L2331,4442Z" fill="#7b5ca8" stroke="#7b5ca8" stroke-width="1.51"/><path d="M93,-1007L-97,-590L279,-354Z" fill="#fbf9fc" stroke="#fbf9fc" stroke-width="1.51"/><path d="M-177,-90L-799,432L-513,636Z" fill="#f6f4f9" stroke="#f6f4f9" stroke-width="1.51"/><path d="M-513,636L-1138,1177L-534,1190Z" fill="#dfdfee" stroke="#dfdfee" stroke-width="1.51"/><path d="M481,4184L1151,4531L753,3689Z" fill="#9473b5" stroke="#9473b5" stroke-width="1.51"/><path d="M2331,4442L4800,4468L2882,4412Z" fill="#4a1886" stroke="#4a1886" stroke-width="1.51"/><path d="M4721,-257L4133,-960L4349,-190Z" fill="#a17fbd" stroke="#a17fbd" stroke-width="1.51"/><path d="M3745,-631L4133,-960L2744,-797Z" fill="#a688c2" stroke="#a688c2" stroke-width="1.51"/><path d="M2744,-797L4133,-960L2259,-797Z" fill="#b09bcc" stroke="#b09bcc" stroke-width="1.51"/><path d="M2259,-797L93,-1007L1623,-797Z" fill="#dfdfee" stroke="#dfdfee" stroke-width="1.51"/><path d="M-1116,22L-799,432L-177,-90Z" fill="#faf8fb" stroke="#faf8fb" stroke-width="1.51"/><path d="M-888,-588L-1116,22L-177,-90Z" fill="#fcfbfd" stroke="#fcfbfd" stroke-width="1.51"/><path d="M879,-724L93,-1007L279,-354Z" fill="#f6f5f9" stroke="#f6f5f9" stroke-width="1.51"/><path d="M1623,-797L93,-1007L879,-724Z" fill="#edecf5" stroke="#edecf5" stroke-width="1.51"/><path d="M4133,-960L93,-1007L2259,-797Z" fill="#c5c1df" stroke="#c5c1df" stroke-width="1.51"/><path d="M3977,4130L4610,3871L4357,3480Z" fill="#3f007d" stroke="#3f007d" stroke-width="1.51"/><path d="M-799,432L-1138,1177L-513,636Z" fill="#eae9f3" stroke="#eae9f3" stroke-width="1.51"/><path d="M-903,1674L-1117,2179L-69,1831Z" fill="#bbb4d8" stroke="#bbb4d8" stroke-width="1.51"/><path d="M-1138,1177L-1117,2179L-903,1674Z" fill="#c3bfde" stroke="#c3bfde" stroke-width="1.51"/><path d="M-888,-588L-177,-90L-97,-590Z" fill="#fcfbfd" stroke="#fcfbfd" stroke-width="1.51"/><path d="M-799,432L-1116,22L-1138,1177Z" fill="#f0eff6" stroke="#f0eff6" stroke-width="1.51"/><path d="M-1117,2179L-1135,3057L-132,2537Z" fill="#a88bc4" stroke="#a88bc4" stroke-width="1.51"/><path d="M-67,3536L-181,4382L481,4184Z" fill="#a07ebc" stroke="#a07ebc" stroke-width="1.51"/><path d="M-1138,1177L-1135,3057L-1117,2179Z" fill="#b4a4d0" stroke="#b4a4d0" stroke-width="1.51"/><path d="M481,4184L-181,4382L1151,4531Z" fill="#9b79b9" stroke="#9b79b9" stroke-width="1.51"/><path d="M-1043,4113L-181,4382L-67,3536Z" fill="#a17fbd" stroke="#a17fbd" stroke-width="1.51"/><path d="M4133,-960L4939,-968L93,-1007Z" fill="#b09bcc" stroke="#b09bcc" stroke-width="1.51"/><path d="M4721,-257L4939,-968L4133,-960Z" fill="#a17fbd" stroke="#a17fbd" stroke-width="1.51"/><path d="M4870,562L4939,-968L4721,-257Z" fill="#a17fbd" stroke="#a17fbd" stroke-width="1.51"/><path d="M5004,2511L4939,-968L4870,562Z" fill="#9171b4" stroke="#9171b4" stroke-width="1.51"/><path d="M93,-1007L-888,-588L-97,-590Z" fill="#fcfbfd" stroke="#fcfbfd" stroke-width="1.51"/><path d="M-1135,3057L-1139,3582L-163,3199Z" fill="#a17fbd" stroke="#a17fbd" stroke-width="1.51"/><path d="M-1138,1177L-1139,3582L-1135,3057Z" fill="#a88ac4" stroke="#a88ac4" stroke-width="1.51"/><path d="M3977,4130L4800,4468L4610,3871Z" fill="#3f007d" stroke="#3f007d" stroke-width="1.51"/><path d="M4610,3871L4800,4468L5004,2511Z" fill="#3f007d" stroke="#3f007d" stroke-width="1.51"/><path d="M3340,4324L4800,4468L3977,4130Z" fill="#3f007d" stroke="#3f007d" stroke-width="1.51"/><path d="M2882,4412L4800,4468L3340,4324Z" fill="#430880" stroke="#430880" stroke-width="1.51"/><path d="M1151,4531L4800,4468L2331,4442Z" fill="#593493" stroke="#593493" stroke-width="1.51"/><path d="M-1139,3582L-1043,4113L-67,3536Z" fill="#a17fbd" stroke="#a17fbd" stroke-width="1.51"/></svg>